<svg width="1009" height="1233" fill="none" xmlns="http://www.w3.org/2000/svg">
    <path d="M24.368 1232.07l15.53-112.58 30.68-117.3-17.14-45.592s-15-117.74 41.25-161c56.25-43.26 65.45-47.41 65.45-47.41s135.65 171.93 339 168.87c203.35-3.06 328.18-130.19 328.18-130.19l42-46.11 14.44 49.93-15.71 43.38-10.73 32.19 38.38 53.64 56.12 125.692 16.09 69.9 16.92 63.54 13.61 53.09-974.07-.05z" fill="url(#prefix__prefix__paint0_linear_346_8480)" />
    <path d="M247.198 1101.49a922.304 922.304 0 00-19 130.58h-20.89v-.72a926.168 926.168 0 0119.52-134.67 10.46 10.46 0 014.679-6.49 10.516 10.516 0 017.896-1.28 10.453 10.453 0 017.765 12.58h.03zm620.32 130.58h-21.11c-2.86-14.16-20.25-98.69-36.62-147.37a10.443 10.443 0 01.51-8.01 10.437 10.437 0 016.044-5.29 10.46 10.46 0 018.009.56c1.232.62 2.33 1.47 3.231 2.52.9 1.04 1.586 2.25 2.016 3.56 18.26 54.27 36.94 148 37.72 152 .136.67.203 1.35.2 2.03zm-703.47-359.622c-36.78 29.35-63.66 67.4-79.87 113.1-55.72 157.002-49.44 244.802-49.37 245.662v.86h-20.9c-.68-10.16-4.54-98.23 50.55-253.512 17.54-49.43 46.65-90.63 86.53-122.45a10.445 10.445 0 017.811-2.517 10.453 10.453 0 017.22 3.9 10.44 10.44 0 012.177 7.912 10.445 10.445 0 01-4.208 7.045h.06zm844.432 359.622h-21.092c-2.38-11.9-15.44-75.74-36.39-146.32-30.24-101.864-62.93-171.344-94.54-200.934l-2.5-2.36a45.688 45.688 0 00-5.57-4.69 10.452 10.452 0 1112.68-16.62 66.815 66.815 0 017.33 6.19c.61.59 1.35 1.3 2.34 2.22 34.83 32.6 68.59 103.39 100.34 210.414 23.4 78.86 37.082 149.42 37.212 150.12.13.65.19 1.31.19 1.98z" fill="#000" />
    <path d="M160.138 748.199s-157.09 58.87-95.77 253.991m95.77-147.553s52.18 120.38 243.46 131m297.12-16.368s119-29.84 172-136.28c32.82-65.94-6.64-89.63-6.64-89.63" stroke="#000" stroke-width="20" stroke-miterlimit="10" stroke-linecap="round" />
    <path d="M675.648 1078.95l3.847 5.41-15.112 33.34h25.682l-4.47-6.31-.675 2.05h-13.284l11.118-24.37 27.87 39.35h-64.167l22.438-49.51c1.169-2.57 4.908-2.55 6.757.04h-.004zm-2.665 95.49l-1.449 3.27H631.1c-3.021 0-5.346-3.29-4.165-5.89l16.587-36.6h46.865l-17.404 39.22zm6.65 3.14l17.641-39.76 1.152-2.6h17.102l12.768 17.86H715.43l-5.186-7.15h-4.368l-9.049 20.39h27.966l-6.255-8.84 12.944.04 10.107 14.21c1.851 2.6.415 5.85-2.587 5.85h-59.369z" fill="#fff" />
    <path d="M740.579 1183.85l-109.332.09c-7.548.01-13.362-8.19-10.42-14.7l42.528-94.08c2.915-6.45 12.266-6.4 16.877.09l66.803 93.98c4.62 6.5 1.038 14.61-6.456 14.62" fill="#fff" />
    <path d="M643.764 1134.68l-16.833 37.14c-1.179 2.6 1.145 5.89 4.165 5.89h41.246l19.089-43.03h-47.667zm7.968 11.25h21.691l-2.054 4.63h-21.736l2.099-4.63zm12.59 20.52h-21.887l2.097-4.63h21.843l-2.053 4.63zm46.684-37.49h-64.801l22.684-50.05c1.169-2.57 4.908-2.55 6.757.04l3.847 5.41-15.112 33.34h25.682l-4.47-6.31-.674 2.06h-13.285l11.118-24.38 28.254 39.89zm27.997 48.62h-60.187l19.041-42.9h17.284l13.156 18.4-12.867.01-5.186-7.16h-4.368l-9.048 20.39h27.966l-6.255-8.84 12.944.04 10.106 14.21c1.851 2.61.415 5.85-2.586 5.85" fill="#E970E1" />
    <path d="M510.048 917.066c231.408 0 419-168.117 419-375.5s-187.592-375.5-419-375.5c-231.407 0-419 168.117-419 375.5s187.593 375.5 419 375.5z" fill="url(#prefix__prefix__paint1_linear_346_8480)" />
    <path d="M510.048 917.066c231.408 0 419-168.117 419-375.5s-187.592-375.5-419-375.5c-231.407 0-419 168.117-419 375.5s187.593 375.5 419 375.5z" stroke="#000" stroke-width="20" />
    <path d="M821.048 738.57c0 43.355-75.664 78.5-169 78.5-93.335 0-169-35.113-169-78.5 0-43.386 75.665-78.5 169-78.5 93.336 0 169 35.146 169 78.5z" fill="url(#prefix__prefix__paint2_linear_346_8480)" />
    <path d="M640.048 734.949l18.13-11.88a26.139 26.139 0 004.16-40.35v0a26.154 26.154 0 00-38.16 1.29l-16.13 18.44m32 32.621l18.13 11.88a26.114 26.114 0 0111.684 19.18 26.121 26.121 0 01-7.524 21.16v0a26.097 26.097 0 01-19.358 7.653 26.116 26.116 0 01-18.802-8.933l-16.13-18.44" stroke="#000" stroke-width="20" stroke-miterlimit="10" stroke-linecap="round" />
    <path d="M834.318 568.069a156.443 156.443 0 00-153.41 134 26.555 26.555 0 01-16.18 20.75l-10.68 6.87a6.421 6.421 0 00-2.92 4.75 6.422 6.422 0 001.92 5.25c17.18 16.44 31.57 31.63 42 53a156.457 156.457 0 0073.449 72.933 156.453 156.453 0 00223.751-142.393c-.7-86.04-71.79-155.92-157.93-155.16z" fill="url(#prefix__prefix__paint3_linear_346_8480)" stroke="#000" stroke-width="20" stroke-miterlimit="10" />
    <path d="M11.408 624.938l5.15-57.71s19.71-62.82 22.75-74.13c3.04-11.31 8.7-32.2 15.23-44.81 6.53-12.61 12.18-23.93 19.58-37.85 7.4-13.92 13.42-31.37 16.93-35.68 3.51-4.31 8.3-19.14 8.3-19.14V166.566l10.201-35 197.319-84.408 188.38-35.24h212.31l17.991 23.148 82.499 190.902 94.73 84.68s15.77 29.26 17.08 31c1.31 1.74 9.22 10.47 9.18 13.51-.04 3.04 4.31 7.84 6 10.45 1.69 2.61 8.7 10 10.44 12.61 1.74 2.61 8.7 10 11.31 14.8 2.61 4.8 3.48 4.78 6.09 11.74s3.92 9.57 7 17.4c3.08 7.83 5.22 12.62 5.22 12.62s-8.26 2.61-13.49 0-64.82-17.4-77-20.88c-12.18-3.48-12.18-3.92-34.37-3.48-22.19.44-48.29.87-53.51.43-5.22-.44-50.47-.87-67-1.3-16.53-.43-36.55-.44-36.55-.44l-96.58 6.53s-54 4.35-76.57 6.52c-22.57 2.17-47.86 7-57 10s-2.61 3.92-43.94 10-159.23 46.11-159.23 46.11l-109.61 43.98-83.53 39.59-29.58 23.5-25.73 29.6z" fill="url(#prefix__prefix__paint4_linear_346_8480)" />
    <path d="M97.739 646.847l-2.91-7.78s-8.39-26.19-12.14-62.29h-16.37s-16.93 9.73-24.8 17.26c-7.87 7.53-26.69 25.32-27.89 26.18-1.2.86-3.59 1.88 0 6s7 11.12 14.54 12.83c7.54 1.71 20.53 4.79 28.74 5 8.21.21 25.32-.85 28.91-.34s11.92 3.14 11.92 3.14z" fill="#4E4E4E" />
    <path d="M921.048 431.187s9.64 28.47 12.46 48.78l5.49 6.53s10.52-4.45 17-7.86a139.548 139.548 0 0017.2-10.53c3.7-2.82 11.12-8 11.41-9.27.29-1.27 1.44-12.95.83-14.34-.61-1.39-.68-2-11.88-7.83a206.636 206.636 0 00-23-9.78c-1.63-.74-26.39-3.41-26.39-3.41l-3.12 7.71z" fill="#2A2A2A" />
    <path d="M108.508 649.159h-4.68c-56.19-.07-90.26-6.42-92.68-19.56-6.33-34.45 190.66-148 460.41-197.56s510.1-16.39 516.43 18.06c2.19 11.92-22 27.87-65.63 45.69" stroke="#000" stroke-width="20" stroke-miterlimit="10" />
    <path d="M11.148 629.608l1-17.88a499.369 499.369 0 0181.09-246.72 24.22 24.22 0 003.89-15.35l3.69-190.4a30.902 30.902 0 0116.44-28.53l22.51-11.9C319.443 35.083 477.549-1.323 675.258 13.068l25.27 3.12a30.91 30.91 0 0125.52 20.88l81.9 182.72a24.31 24.31 0 008.74 11.85 499.313 499.313 0 01164 202.15l7.27 16.37" stroke="#000" stroke-width="20" stroke-miterlimit="10" />
    <path d="M187.269 341.666c169.082-69.753 347.944-103.166 530.779-98.07h3.001" stroke="#000" stroke-width="20" stroke-miterlimit="10" stroke-linecap="round" />
    <path d="M470.143 175.459l1.972 11.708a14.975 14.975 0 01-.243 6.355c-1.484 5.858-5.405 6.793-5.405 6.793a15.124 15.124 0 01-12.609-.464c-5.711-3.175-24.11-35.568-24.11-35.568l-17.744 42.619-16.494 2.779 24.88-59.509-14.383-20.305a8.991 8.991 0 00-8.608-3.726l-.267.045a9.125 9.125 0 00-7.329 4.568c-1.411 1.983-1.093 7.597-1.093 7.597l-3.353.819a44.52 44.52 0 01-1.944-10.026 15.033 15.033 0 011.348-7.6 11 11 0 018.371-6.528 15.12 15.12 0 019.059 1.278 16.764 16.764 0 016.922 6.168l14.222 23.194 16.224-36.854 15.007-2.528-22.254 51.811 10.506 16.506s8.612 16.198 16.83 14.813c8.219-1.384 6.983-13.373 6.983-13.373l3.512-.572z" fill="#fff" />
    <defs>
        <linearGradient id="prefix__prefix__paint0_linear_346_8480" x1="121.048" y1="782.066" x2="957.548" y2="1232.07" gradientUnits="userSpaceOnUse">
            <stop stop-color="#FFC3FB" />
            <stop offset="1" stop-color="#DC3FD1" />
        </linearGradient>
        <linearGradient id="prefix__prefix__paint1_linear_346_8480" x1="152.048" y1="227.566" x2="831.048" y2="879.066" gradientUnits="userSpaceOnUse">
            <stop stop-color="#BFC7FF" />
            <stop offset="1" stop-color="#8C95CF" />
        </linearGradient>
        <linearGradient id="prefix__prefix__paint2_linear_346_8480" x1="527.548" y1="684.602" x2="767.379" y2="825.281" gradientUnits="userSpaceOnUse">
            <stop stop-color="#9EA6E0" />
            <stop offset=".519" stop-color="#979FD9" />
            <stop offset=".777" stop-color="#949CD7" />
            <stop offset="1" stop-color="#939BD6" />
        </linearGradient>
        <linearGradient id="prefix__prefix__paint3_linear_346_8480" x1="720.049" y1="622.07" x2="967.549" y2="833.07" gradientUnits="userSpaceOnUse">
            <stop stop-color="#F8C5DF" />
            <stop offset="1" stop-color="#E178B0" />
        </linearGradient>
        <linearGradient id="prefix__prefix__paint4_linear_346_8480" x1="110.549" y1="135.068" x2="864.049" y2="516.068" gradientUnits="userSpaceOnUse">
            <stop stop-color="#535353" />
            <stop offset="1" stop-color="#292929" />
        </linearGradient>
    </defs>
</svg>
