<svg width="22" height="24" viewBox="0 0 22 24" fill="none" xmlns="http://www.w3.org/2000/svg">
<path d="M9.5841 0.311612L1.06491 5.23219C0.741028 5.41918 0.472068 5.68817 0.285133 6.01208C0.0981968 6.336 -0.000132209 6.70342 1.33415e-07 7.07741L0.00533432 16.9294C0.00557348 17.3028 0.103978 17.6696 0.290691 17.993C0.477403 18.3163 0.745851 18.5849 1.06912 18.7718L9.59826 23.7023C9.92203 23.8893 10.2893 23.9877 10.6631 23.9877C11.037 23.9877 11.4043 23.8893 11.728 23.7023L20.2473 18.7832C20.5711 18.5962 20.8401 18.3273 21.027 18.0033C21.2139 17.6794 21.3123 17.312 21.3121 16.938L21.3068 7.08603C21.3066 6.71265 21.2081 6.3459 21.0214 6.02256C20.8347 5.69921 20.5663 5.43064 20.243 5.24376L11.7139 0.31308C11.3901 0.126151 11.0229 0.0277405 10.649 0.0277405C10.2751 0.0277405 9.90787 0.126151 9.5841 0.31308V0.311612Z" fill="white"/>
<path d="M6.77214 20.3723C6.78527 20.3081 6.814 20.2481 6.85583 20.1977C9.40425 15.8735 11.9531 11.5494 14.5024 7.22556C14.5378 7.16552 14.5707 7.10383 14.6008 7.05004C14.5784 7.01093 14.5529 7.01901 14.5312 7.01901C13.4421 7.02286 12.3529 7.02984 11.2631 7.02856C11.2165 7.02773 11.1708 7.04118 11.1321 7.06712C11.0934 7.09305 11.0636 7.13022 11.0466 7.17361C10.2251 8.53228 9.40242 9.89057 8.57877 11.2485C6.83393 14.1273 5.08891 17.006 3.3437 19.8847C3.32827 19.9102 3.3121 19.9352 3.29833 19.9614C3.26749 20.0209 3.23243 20.0303 3.16982 19.9939C2.899 19.834 2.62526 19.6792 2.33755 19.5138L10.104 7.05775C10.0873 7.00707 10.0529 7.01975 10.0265 7.01883C9.61026 7.00634 9.19388 6.98836 8.77802 6.98468C8.19381 6.96737 7.61158 7.0612 7.06239 7.26119C6.56223 7.44639 6.13719 7.79148 5.85318 8.24291C4.43417 10.4562 3.00979 12.6661 1.58001 14.8725C1.55761 14.9074 1.53375 14.9415 1.51062 14.976C1.42873 14.976 1.44082 14.9085 1.4333 14.8613C1.42605 14.7902 1.42436 14.7187 1.42819 14.6474C1.42819 12.2069 1.43663 9.76646 1.42065 7.32618C1.40783 7.11591 1.45837 6.90663 1.5658 6.72541C1.67323 6.5442 1.8326 6.3994 2.02324 6.30975C3.89985 5.23989 5.76434 4.14801 7.63489 3.06732C8.46974 2.58499 9.30717 2.10725 10.136 1.61483C10.2919 1.51023 10.4753 1.45438 10.6631 1.45438C10.8508 1.45438 11.0343 1.51023 11.1902 1.61483C12.7141 2.50916 14.2516 3.38274 15.7834 4.26441C16.9387 4.92966 18.0947 5.59376 19.2511 6.25669C19.3339 6.30388 19.4145 6.35436 19.4977 6.40081C19.6329 6.47268 19.7447 6.58176 19.82 6.71515C19.8952 6.84854 19.9306 7.00069 19.9222 7.1536C19.9244 9.80826 19.9244 12.4629 19.9222 15.1176C19.9276 15.1829 19.9205 15.2486 19.9012 15.3113C19.8094 15.4 19.7762 15.3005 19.7428 15.2533C19.6051 15.0596 19.4815 14.8556 19.3536 14.6551C18.3288 13.051 17.3006 11.4491 16.269 9.84926C15.9224 9.30855 15.5713 8.77004 15.2284 8.22712C15.1483 8.10044 15.1338 8.0986 15.0538 8.23465C14.5362 9.11032 14.019 9.98617 13.5021 10.8622C13.4738 10.9109 13.4615 10.9673 13.4672 11.0234C13.4729 11.0795 13.4962 11.1323 13.5337 11.1743C13.9599 11.862 14.3853 12.5501 14.8099 13.2388L16.9869 16.7603C17.2807 17.2362 17.5749 17.7117 17.8697 18.1867C17.9244 18.2504 17.9552 18.3312 17.9567 18.4151C17.8978 18.5322 17.7749 18.5651 17.6727 18.6184C17.5048 18.7395 17.3204 18.8358 17.125 18.9042C17.0196 18.878 16.9823 18.7829 16.9324 18.705C16.2584 17.6537 15.593 16.5971 14.9234 15.5432C14.2347 14.4599 13.5493 13.3726 12.8577 12.2904C12.769 12.1516 12.7548 12.1507 12.6715 12.2904C12.0698 13.3027 11.4764 14.3196 10.8733 15.3307C10.8424 15.3781 10.8273 15.434 10.8299 15.4905C10.8326 15.547 10.853 15.6012 10.8882 15.6454C11.7006 16.8976 12.4943 18.1608 13.2981 19.4192C13.5223 19.7699 13.7481 20.1193 13.9683 20.4726C14.0112 20.5412 14.07 20.6097 14.0311 20.7026C13.8201 20.8668 13.5924 21.0083 13.3517 21.1249C12.6009 21.5618 11.8498 21.998 11.0982 22.4336C10.9778 22.5114 10.8375 22.5527 10.6942 22.5527C10.551 22.5527 10.4107 22.5114 10.2903 22.4336C9.18332 21.7932 8.07432 21.1557 6.96328 20.521C6.88674 20.4906 6.82044 20.439 6.77214 20.3723V20.3723Z" fill="#2D374B"/>
<path d="M19.8685 15.3379C19.8702 15.2724 19.8735 15.207 19.8735 15.1417C19.8735 12.493 19.8743 9.84445 19.8761 7.19603C19.8855 7.03542 19.8477 6.87555 19.7676 6.73605C19.6874 6.59655 19.5683 6.48349 19.4248 6.41075C16.6435 4.81634 13.8643 3.21832 11.0871 1.61668C10.9621 1.53532 10.8162 1.49183 10.667 1.49144C10.5178 1.49105 10.3717 1.53378 10.2462 1.61448C8.70396 2.51083 7.1597 3.40487 5.61351 4.29657C4.37297 5.0147 3.13252 5.73302 1.89209 6.45152C1.75961 6.52024 1.64977 6.62575 1.5758 6.75538C1.50184 6.88501 1.46689 7.03324 1.47513 7.18226C1.48149 9.7237 1.48507 12.2651 1.48593 14.8066C1.48593 14.8631 1.46299 14.9261 1.51238 14.976C1.21861 15.4652 0.895842 15.9352 0.58647 16.4138C0.431509 16.6535 0.275937 16.8928 0.119751 17.1316C0.0947811 17.1698 0.0659532 17.205 0.0165638 17.2731C0.0128917 17.1931 0.0090332 17.1488 0.0090332 17.1047C0.0090332 13.7532 0.00964701 10.4018 0.010871 7.05025C0.002689 6.67828 0.0971272 6.31124 0.283811 5.9894C0.470495 5.66756 0.742195 5.40336 1.06915 5.22578C2.14763 4.58537 3.24044 3.96884 4.32609 3.33981C5.24209 2.80938 6.15497 2.2749 7.07042 1.74356C7.92418 1.24783 8.76929 0.737225 9.63755 0.268485C9.97009 0.0833105 10.3463 -0.00916621 10.7268 0.00071675C11.1073 0.0105997 11.4781 0.12248 11.8006 0.324668C12.4983 0.720517 13.193 1.12371 13.8887 1.5236C14.5431 1.90023 15.1974 2.27711 15.8517 2.65423C16.4546 3.00137 17.0577 3.34812 17.6611 3.69452C18.2592 4.03811 18.8575 4.38151 19.4558 4.72473C19.7187 4.87583 19.9814 5.02712 20.2427 5.18098C20.5311 5.34417 20.7791 5.57023 20.9683 5.84237C21.1574 6.11452 21.2828 6.42576 21.3352 6.75299C21.3475 6.84751 21.3513 6.94293 21.3465 7.03813C21.3465 10.336 21.3469 13.634 21.3478 16.932C21.3495 17.2453 21.2819 17.5552 21.1498 17.8394C21.0177 18.1235 20.8244 18.3749 20.5837 18.5756C20.4463 18.6803 20.2986 18.7708 20.143 18.8457C19.2494 19.367 18.3547 19.8862 17.4585 20.4032C16.5064 20.954 15.5537 21.5039 14.6007 22.0529C13.685 22.5834 12.7704 23.1158 11.8566 23.6502C11.6291 23.8033 11.3731 23.9089 11.1038 23.9607C10.6565 24.048 10.1931 23.989 9.78189 23.7925C9.32618 23.5481 8.88225 23.283 8.43297 23.0256C7.82965 22.6794 7.22663 22.3326 6.62392 21.9851C6.45365 21.8872 6.28324 21.7898 6.11273 21.693C6.05012 21.6574 6.00737 21.6212 6.05621 21.5395C6.28167 21.1618 6.50364 20.782 6.728 20.4036C6.7359 20.3898 6.75608 20.3834 6.77058 20.3733C6.97964 20.4709 7.18205 20.5822 7.37649 20.7065C8.36097 21.2695 9.34393 21.8354 10.3253 22.4039C10.4387 22.4756 10.5704 22.513 10.7046 22.5116C10.8387 22.5101 10.9696 22.4699 11.0814 22.3958C12.0136 21.8489 12.9505 21.3098 13.8854 20.768C13.9317 20.7412 13.9791 20.7168 14.0261 20.6914C14.1142 20.5788 14.232 20.4929 14.3661 20.4434C15.2107 19.9594 16.049 19.4659 16.8934 18.9832C16.9639 18.943 17.0274 18.8809 17.1192 18.8914L17.9466 18.4122C17.997 18.3064 18.1048 18.2723 18.1952 18.2201C18.6114 17.9798 19.0238 17.7329 19.4437 17.5002C19.5652 17.4363 19.6656 17.3386 19.733 17.219C19.8004 17.0993 19.8318 16.9627 19.8235 16.8257C19.8277 16.4045 19.8235 15.9831 19.8255 15.5617C19.8109 15.4844 19.8263 15.4044 19.8685 15.3379V15.3379Z" fill="#96BEDC"/>
<path d="M19.8692 15.3377C19.8714 15.8606 19.8829 16.3843 19.8712 16.9065C19.8744 17.0288 19.8437 17.1496 19.7825 17.2556C19.7213 17.3616 19.632 17.4485 19.5244 17.5068C18.9978 17.805 18.4807 18.1201 17.9494 18.4102C17.7381 18.0246 17.494 17.6574 17.2631 17.2828C16.0635 15.3386 14.8627 13.3955 13.6604 11.4534C13.5885 11.337 13.5225 11.2162 13.4421 11.1062C13.4159 11.0747 13.4016 11.035 13.4016 10.994C13.4016 10.953 13.4159 10.9132 13.4421 10.8817C13.7291 10.4017 14.0113 9.91905 14.2953 9.43709L15.0837 8.09972C15.0977 8.06792 15.1223 8.04196 15.1533 8.02628C15.2904 8.2376 15.4287 8.45077 15.5668 8.66411C16.3962 9.95546 17.2254 11.2468 18.0544 12.5382C18.6166 13.4143 19.1787 14.2905 19.7408 15.1668C19.7717 15.2318 19.8153 15.29 19.8692 15.3377V15.3377Z" fill="#28A0F0"/>
<path d="M17.1222 18.8893C16.7798 19.1141 16.4167 19.3052 16.0638 19.5136C15.4239 19.8898 14.78 20.259 14.138 20.631C14.1013 20.6518 14.0645 20.6712 14.0291 20.6912C14.021 20.6318 13.9954 20.5762 13.9557 20.5313C13.3839 19.6328 12.8121 18.7344 12.2403 17.8362C11.7704 17.0986 11.2991 16.3617 10.8265 15.6256C10.7945 15.5874 10.7759 15.5398 10.7737 15.49C10.7714 15.4403 10.7856 15.3911 10.814 15.3502C11.4457 14.2863 12.0748 13.2208 12.7013 12.1537C12.7162 12.1291 12.7281 12.1004 12.765 12.0925C12.8164 12.1041 12.8289 12.1555 12.8533 12.1939C13.9916 13.987 15.13 15.7801 16.2683 17.5735C16.5105 17.9552 16.7516 18.3378 16.9952 18.7188C17.0262 18.7833 17.0692 18.8413 17.1219 18.8897L17.1222 18.8893Z" fill="#28A0F0"/>
</svg>
