<svg width="24" height="24" viewBox="0 0 24 24" fill="none" xmlns="http://www.w3.org/2000/svg">
<path fill-rule="evenodd" clip-rule="evenodd" d="M24 12C24 18.6275 18.6275 24 12 24C5.37258 24 0 18.6275 0 12C0 5.37258 5.37258 0 12 0C18.6275 0 24 5.37258 24 12Z" fill="#E84142"/>
<path d="M8.59959 16.7754H6.27073C5.78137 16.7754 5.53964 16.7754 5.39226 16.6811C5.23306 16.5779 5.13578 16.4069 5.12399 16.2182C5.11514 16.0443 5.23602 15.832 5.47774 15.4075L11.228 5.27191C11.4727 4.84151 11.5965 4.62631 11.7527 4.54672C11.9207 4.46123 12.1212 4.46123 12.2893 4.54672C12.4455 4.62631 12.5693 4.84151 12.814 5.27191L13.9961 7.33547L14.0021 7.34599C14.2664 7.80773 14.4004 8.04188 14.4589 8.28764C14.5238 8.5559 14.5238 8.8389 14.4589 9.10717C14.4 9.35479 14.2673 9.59063 13.9991 10.0594L10.9786 15.3987L10.9708 15.4124C10.7048 15.8779 10.5699 16.1139 10.3831 16.2919C10.1797 16.4865 9.93501 16.6279 9.66675 16.7076C9.42207 16.7754 9.14792 16.7754 8.59959 16.7754Z" fill="white"/>
<path d="M14.4807 16.7754H17.8177C18.31 16.7754 18.5577 16.7754 18.7052 16.6782C18.8643 16.575 18.9645 16.401 18.9735 16.2124C18.9819 16.0442 18.8637 15.8401 18.632 15.4403L18.6079 15.3987L16.9364 12.5393L16.9173 12.5071C16.6825 12.1099 16.5639 11.9093 16.4116 11.8318C16.2437 11.7463 16.046 11.7463 15.8781 11.8318C15.7248 11.9113 15.601 12.1207 15.3563 12.5422L13.6907 15.4017L13.685 15.4115C13.4412 15.8324 13.3193 16.0428 13.3281 16.2153C13.3399 16.404 13.4372 16.5779 13.5964 16.6811C13.7408 16.7754 13.9884 16.7754 14.4807 16.7754Z" fill="white"/>
</svg>
